<svg width="20" height="20" viewBox="0 0 20 20" fill="none" xmlns="http://www.w3.org/2000/svg">
<path d="M4.01285 15.1667C3.67515 15.1667 3.39414 15.0544 3.16983 14.83C2.94553 14.6055 2.83337 14.3243 2.83337 13.9863V6.00691C2.83337 5.66897 2.94553 5.38888 3.16983 5.16666C3.39414 4.94444 3.67515 4.83333 4.01285 4.83333H15.9872C16.3249 4.83333 16.6059 4.94556 16.8302 5.17004C17.0546 5.39451 17.1667 5.67572 17.1667 6.01366V13.9931C17.1667 14.331 17.0546 14.6111 16.8302 14.8333C16.6059 15.0556 16.3249 15.1667 15.9872 15.1667H4.01285ZM10 10.2628L3.50004 6.34135V13.9872C3.50004 14.1368 3.54812 14.2596 3.64427 14.3558C3.74042 14.4519 3.86328 14.5 4.01285 14.5H15.9872C16.1368 14.5 16.2597 14.4519 16.3558 14.3558C16.452 14.2596 16.5 14.1368 16.5 13.9872V6.34135L10 10.2628ZM10 9.22916L16.2436 5.49999H3.75646L10 9.22916ZM3.50004 6.34135V5.49999V13.9872C3.50004 14.1368 3.54812 14.2596 3.64427 14.3558C3.74042 14.4519 3.86328 14.5 4.01285 14.5H3.50004V6.34135Z" fill="#2093EE"/>
</svg>
