<svg width="20" height="20" viewBox="0 0 20 20" fill="none" xmlns="http://www.w3.org/2000/svg">
<path d="M9.99996 9.48238C9.31246 9.48238 8.73995 9.25361 8.28242 8.79608C7.82488 8.33854 7.59611 7.76335 7.59611 7.07052C7.59611 6.37767 7.82488 5.80515 8.28242 5.35296C8.73995 4.90076 9.31246 4.67467 9.99996 4.67467C10.6875 4.67467 11.26 4.90076 11.7175 5.35296C12.175 5.80515 12.4038 6.37767 12.4038 7.07052C12.4038 7.76335 12.175 8.33854 11.7175 8.79608C11.26 9.25361 10.6875 9.48238 9.99996 9.48238ZM4.16663 15.5128V14.3077C4.16663 13.9402 4.27186 13.6117 4.48233 13.3221C4.69279 13.0326 4.96897 12.8066 5.31086 12.6442C6.13458 12.281 6.93329 12.0059 7.707 11.8189C8.48071 11.6319 9.24486 11.5385 9.99946 11.5385C10.7541 11.5385 11.5176 11.6327 12.29 11.8213C13.0625 12.0099 13.8576 12.2866 14.6755 12.6515C15.0289 12.8112 15.3102 13.0353 15.5195 13.3237C15.7287 13.6122 15.8333 13.9402 15.8333 14.3077V15.5128H4.16663ZM4.80765 14.8718H15.1923V14.3077C15.1923 14.0962 15.121 13.8924 14.9783 13.6963C14.8357 13.5003 14.6404 13.3376 14.3926 13.2083C13.6426 12.8419 12.9092 12.5788 12.1925 12.4191C11.4757 12.2593 10.7449 12.1795 9.99996 12.1795C9.25502 12.1795 8.5199 12.2593 7.79463 12.4191C7.06933 12.5788 6.33863 12.8419 5.60252 13.2083C5.35466 13.3376 5.16022 13.5003 5.01919 13.6963C4.87816 13.8924 4.80765 14.0962 4.80765 14.3077V14.8718ZM9.99996 8.84135C10.4989 8.84135 10.9174 8.67228 11.2556 8.33413C11.5937 7.99599 11.7628 7.57745 11.7628 7.07852C11.7628 6.57959 11.5937 6.16106 11.2556 5.82292C10.9174 5.48478 10.4989 5.31571 9.99996 5.31571C9.50103 5.31571 9.08249 5.48478 8.74436 5.82292C8.40622 6.16106 8.23715 6.57959 8.23715 7.07852C8.23715 7.57745 8.40622 7.99599 8.74436 8.33413C9.08249 8.67228 9.50103 8.84135 9.99996 8.84135Z" fill="#2093EE"/>
</svg>
