<svg width="25" height="20" viewBox="0 0 25 20" fill="none" xmlns="http://www.w3.org/2000/svg">
<path d="M7.50861 17.1667C7.09953 17.1667 6.75275 17.0518 6.46829 16.8222C6.18385 16.5926 6.04163 16.3142 6.04163 15.9872V9.01281C6.04163 8.68579 6.18515 8.40745 6.4722 8.17779C6.75926 7.94815 7.10719 7.83333 7.51597 7.83333H8.54163V5.83333C8.54163 4.95103 8.9262 4.20267 9.69535 3.58827C10.4645 2.97387 11.4013 2.66667 12.5058 2.66667C13.6104 2.66667 14.5452 2.97387 15.3105 3.58827C16.0757 4.20267 16.4583 4.95103 16.4583 5.83333V7.83333H17.4839C17.8927 7.83333 18.2407 7.94815 18.5277 8.17779C18.8148 8.40745 18.9583 8.68579 18.9583 9.01281V15.9872C18.9583 16.3142 18.8147 16.5926 18.5274 16.8222C18.2401 17.0518 17.892 17.1667 17.4829 17.1667H7.50861ZM7.51597 16.5H17.4839C17.6709 16.5 17.8245 16.4519 17.9447 16.3558C18.0649 16.2596 18.125 16.1368 18.125 15.9872V9.01281C18.125 8.86324 18.0649 8.74038 17.9447 8.64423C17.8245 8.54808 17.6709 8.5 17.4839 8.5H7.51597C7.32901 8.5 7.17544 8.54808 7.05525 8.64423C6.93506 8.74038 6.87496 8.86324 6.87496 9.01281V15.9872C6.87496 16.1368 6.93506 16.2596 7.05525 16.3558C7.17544 16.4519 7.32901 16.5 7.51597 16.5ZM12.5055 13.5833C12.8891 13.5833 13.2098 13.4788 13.4675 13.2696C13.7253 13.0605 13.8541 12.8025 13.8541 12.4956C13.8541 12.1887 13.7234 11.9322 13.462 11.726C13.2006 11.5198 12.878 11.4167 12.4944 11.4167C12.1108 11.4167 11.7902 11.5212 11.5324 11.7304C11.2747 11.9395 11.1458 12.1975 11.1458 12.5044C11.1458 12.8113 11.2765 13.0678 11.5379 13.274C11.7994 13.4802 12.1219 13.5833 12.5055 13.5833ZM9.37496 7.83333H15.625V5.83333C15.625 5.13889 15.3211 4.54861 14.7135 4.0625C14.1059 3.57639 13.368 3.33333 12.5 3.33333C11.6319 3.33333 10.8941 3.57639 10.2864 4.0625C9.67878 4.54861 9.37496 5.13889 9.37496 5.83333V7.83333Z" fill="#2093EE"/>
</svg>
