<svg width="30" height="30" viewBox="0 0 30 30" fill="none" xmlns="http://www.w3.org/2000/svg">
<g clip-path="url(#clip0_910_95)">
<path d="M23.1827 15.9537C23.2127 13.6162 24.4377 11.4575 26.429 10.2337C25.1677 8.43123 23.129 7.32998 20.9302 7.26123C18.6165 7.01873 16.374 8.64498 15.1952 8.64498C13.994 8.64498 12.179 7.28498 10.224 7.32498C7.65271 7.40873 5.31271 8.83498 4.06146 11.0837C1.39771 15.6962 3.38396 22.4762 5.93646 26.205C7.21396 28.0312 8.70521 30.07 10.659 29.9987C12.5702 29.92 13.284 28.78 15.5902 28.78C17.8752 28.78 18.5452 29.9987 20.5377 29.9525C22.5877 29.9187 23.8802 28.1187 25.1127 26.275C26.0302 24.9737 26.7365 23.5362 27.204 22.015C24.769 20.985 23.1852 18.5987 23.1827 15.9537Z" fill="black"/>
<path d="M19.4188 4.80875C20.5363 3.46625 21.0875 1.74125 20.9538 0C19.2463 0.18 17.6675 0.99625 16.535 2.28625C15.4163 3.56 14.8488 5.225 14.9588 6.9175C16.69 6.935 18.3338 6.1575 19.4188 4.80875Z" fill="black"/>
</g>
<defs>
<clipPath id="clip0_910_95">
<rect width="30" height="30" fill="white"/>
</clipPath>
</defs>
</svg>
