<svg width="30" height="30" viewBox="0 0 30 30" fill="none" xmlns="http://www.w3.org/2000/svg">
<g clip-path="url(#clip0_910_100)">
<path d="M25.3964 5.46253C23.4839 4.58503 21.4339 3.93878 19.2901 3.56878C19.2514 3.56128 19.2126 3.58003 19.1914 3.61503C18.9276 4.08378 18.6351 4.69628 18.4314 5.17628C16.1251 4.83128 13.8314 4.83128 11.5726 5.17628C11.3689 4.68503 11.0651 4.08378 10.8014 3.61503C10.7801 3.58003 10.7414 3.56253 10.7026 3.56878C8.56011 3.93753 6.51011 4.58378 4.59636 5.46253C4.58011 5.46878 4.56511 5.48128 4.55636 5.49628C0.667609 11.3063 -0.398641 16.9738 0.123859 22.5713C0.126359 22.5988 0.141359 22.625 0.162609 22.6413C2.72886 24.5263 5.21386 25.67 7.65386 26.4275C7.69261 26.44 7.73386 26.425 7.75886 26.3925C8.33636 25.605 8.85011 24.7738 9.29136 23.9C9.31761 23.8488 9.29261 23.7875 9.23886 23.7675C8.42261 23.4575 7.64636 23.08 6.89886 22.6525C6.84011 22.6175 6.83511 22.5338 6.88886 22.4925C7.04636 22.375 7.20386 22.2525 7.35386 22.1288C7.38136 22.1063 7.41886 22.1013 7.45136 22.1163C12.3614 24.3575 17.6764 24.3575 22.5276 22.1163C22.5601 22.1013 22.5976 22.105 22.6264 22.1288C22.7764 22.2525 22.9339 22.3763 23.0926 22.4938C23.1476 22.5338 23.1439 22.6188 23.0839 22.6538C22.3364 23.09 21.5601 23.46 20.7426 23.7675C20.6889 23.7875 20.6664 23.85 20.6914 23.9013C21.1414 24.7738 21.6564 25.605 22.2226 26.3925C22.2464 26.4263 22.2889 26.44 22.3276 26.4288C24.7789 25.67 27.2651 24.5263 29.8301 22.6425C29.8526 22.6263 29.8664 22.6013 29.8689 22.5738C30.4939 16.1025 28.8214 10.4813 25.4339 5.49878C25.4276 5.48128 25.4126 5.46878 25.3964 5.46253ZM10.0251 19.1638C8.54636 19.1638 7.32886 17.8063 7.32886 16.14C7.32886 14.4738 8.52261 13.1163 10.0251 13.1163C11.5389 13.1163 12.7451 14.485 12.7214 16.14C12.7214 17.8075 11.5264 19.1638 10.0251 19.1638ZM19.9939 19.1638C18.5164 19.1638 17.2976 17.8063 17.2976 16.14C17.2976 14.4738 18.4914 13.1163 19.9939 13.1163C21.5076 13.1163 22.7139 14.485 22.6901 16.14C22.6901 17.8075 21.5076 19.1638 19.9939 19.1638Z" fill="#426CFF"/>
</g>
<defs>
<clipPath id="clip0_910_100">
<rect width="30" height="30" fill="white"/>
</clipPath>
</defs>
</svg>
