<svg width="30" height="30" viewBox="0 0 30 30" fill="none" xmlns="http://www.w3.org/2000/svg">
<g clip-path="url(#clip0_910_116)">
<path d="M28.7522 26.98H29.0359L28.4922 26.1575C28.8247 26.1575 29.0009 25.9463 29.0034 25.6875C29.0034 25.6775 29.0034 25.6663 29.0022 25.6563C29.0022 25.3038 28.7897 25.135 28.3534 25.135H27.6484V26.98H27.9134V26.1763H28.2397L28.7522 26.98ZM28.2209 25.9675H27.9134V25.3438H28.3034C28.5047 25.3438 28.7347 25.3763 28.7347 25.64C28.7347 25.9425 28.5034 25.9675 28.2209 25.9675Z" fill="#2C5BFF"/>
<path d="M21.6138 23.8412H17.855V17.955C17.855 16.5512 17.83 14.745 15.9 14.745C13.9425 14.745 13.6425 16.2737 13.6425 17.8537V23.8412H9.885V11.7362H13.4938V13.39H13.5438C14.28 12.1325 15.6475 11.3812 17.1037 11.435C20.9137 11.435 21.615 13.9412 21.615 17.2L21.6138 23.8412ZM5.64375 10.0812C4.43875 10.0812 3.4625 9.10497 3.4625 7.89997C3.4625 6.69497 4.43875 5.71872 5.64375 5.71872C6.84875 5.71872 7.825 6.69497 7.825 7.89997C7.825 9.10497 6.84875 10.0812 5.64375 10.0812ZM7.5225 23.8412H3.76V11.7362H7.5225V23.8412ZM23.4875 2.22872H1.87125C0.85 2.21747 0.0125 3.03622 0 4.05747V25.7625C0.0125 26.785 0.85 27.6037 1.87125 27.5925H23.4875C24.5113 27.605 25.3525 26.7862 25.3662 25.7625V4.05622C25.3512 3.03247 24.51 2.21372 23.4875 2.22747" fill="#2C5BFF"/>
<path d="M28.2536 24.3137C27.2986 24.3225 26.5311 25.105 26.5411 26.06C26.5499 27.015 27.3324 27.7825 28.2874 27.7725C29.2424 27.7637 30.0099 26.9812 29.9999 26.0262C29.9911 25.0837 29.2286 24.3225 28.2874 24.3137H28.2536ZM28.2936 27.5737C27.4561 27.5875 26.7261 26.9212 26.7124 26.0837C26.6986 25.2462 27.3661 24.5562 28.2036 24.5425C29.0411 24.5287 29.7311 25.1962 29.7449 26.0337C29.7449 26.0425 29.7449 26.05 29.7449 26.0587C29.7624 26.8775 29.1124 27.5562 28.2936 27.5737H28.2549Z" fill="#2C5BFF"/>
</g>
<defs>
<clipPath id="clip0_910_116">
<rect width="30" height="30" fill="white"/>
</clipPath>
</defs>
</svg>
