<svg width="30" height="30" viewBox="0 0 30 30" fill="none" xmlns="http://www.w3.org/2000/svg">
<g clip-path="url(#clip0_910_75)">
<path d="M6.31625 18.9475C6.31625 20.6913 4.9025 22.105 3.15875 22.105C1.41375 22.105 0 20.6913 0 18.9475C0 17.2038 1.41375 15.79 3.1575 15.79H6.315L6.31625 18.9475Z" fill="#FF7262"/>
<path d="M7.89502 18.9475C7.89502 17.2038 9.30877 15.79 11.0525 15.79C12.7963 15.79 14.21 17.2038 14.21 18.9475V26.8425C14.21 28.5863 12.7963 30 11.0525 30C9.30877 30 7.89502 28.5863 7.89502 26.8425V18.9475Z" fill="#FF7262"/>
<path d="M11.0525 6.31625C9.30877 6.31625 7.89502 4.9025 7.89502 3.15875C7.89502 1.41375 9.30877 0 11.0525 0C12.7963 0 14.21 1.41375 14.21 3.1575V6.315L11.0525 6.31625Z" fill="#A259FF"/>
<path d="M11.0525 7.89502C12.7962 7.89502 14.21 9.30877 14.21 11.0525C14.21 12.7963 12.7962 14.21 11.0525 14.21H3.1575C1.41375 14.21 0 12.7963 0 11.0525C0 9.30877 1.41375 7.89502 3.1575 7.89502H11.0525Z" fill="#A259FF"/>
<path d="M23.6836 11.0525C23.6836 9.30877 25.0973 7.89502 26.8411 7.89502C28.5861 7.89502 29.9998 9.30877 29.9998 11.0525C29.9998 12.7963 28.5861 14.21 26.8423 14.21H23.6848L23.6836 11.0525Z" fill="#0ACF83"/>
<path d="M22.105 11.0525C22.105 12.7962 20.6913 14.21 18.9475 14.21C17.2038 14.21 15.79 12.7962 15.79 11.0525V3.1575C15.79 1.41375 17.2038 0 18.9475 0C20.6913 0 22.105 1.41375 22.105 3.1575V11.0525Z" fill="#0ACF83"/>
<path d="M18.9475 23.6838C20.6913 23.6838 22.105 25.0976 22.105 26.8413C22.105 28.5851 20.6913 29.9988 18.9475 29.9988C17.2038 29.9988 15.79 28.5851 15.79 26.8413V23.6838H18.9475Z" fill="#F24E1E"/>
<path d="M18.9475 22.105C17.2038 22.105 15.79 20.6913 15.79 18.9475C15.79 17.2038 17.2038 15.79 18.9475 15.79H26.8425C28.5863 15.79 30 17.2038 30 18.9475C30 20.6913 28.5863 22.105 26.8425 22.105H18.9475Z" fill="#F24E1E"/>
</g>
<defs>
<clipPath id="clip0_910_75">
<rect width="30" height="30" fill="white"/>
</clipPath>
</defs>
</svg>
