<svg width="30" height="30" viewBox="0 0 30 30" fill="none" xmlns="http://www.w3.org/2000/svg">
<g clip-path="url(#clip0_910_113)">
<path d="M26.9287 8.87994C26.9462 9.14369 26.9462 9.40869 26.9462 9.67494C26.9462 17.8087 20.7537 27.1874 9.43375 27.1874V27.1824C6.09 27.1874 2.815 26.2299 0 24.4237C0.48625 24.4824 0.975 24.5112 1.465 24.5124C4.2375 24.5149 6.93 23.5849 9.10875 21.8724C6.475 21.8224 4.165 20.1049 3.35875 17.5974C4.28125 17.7749 5.23125 17.7387 6.1375 17.4924C3.265 16.9124 1.2 14.3887 1.2 11.4587C1.2 11.4324 1.2 11.4062 1.2 11.3812C2.05625 11.8587 3.01375 12.1224 3.99375 12.1512C1.28875 10.3449 0.45375 6.74744 2.0875 3.93494C5.2125 7.77994 9.82375 10.1174 14.7725 10.3662C14.2762 8.22869 14.955 5.98869 16.5525 4.48494C19.0312 2.15369 22.93 2.27369 25.2612 4.75244C26.64 4.48119 27.9613 3.97494 29.17 3.25869C28.71 4.68369 27.7487 5.89369 26.4637 6.66369C27.685 6.51744 28.8763 6.19119 30 5.69369C29.1737 6.92994 28.1337 8.00869 26.9287 8.87994Z" fill="#426CFF"/>
</g>
<defs>
<clipPath id="clip0_910_113">
<rect width="30" height="30" fill="white"/>
</clipPath>
</defs>
</svg>
