<svg width="26" height="26" viewBox="0 0 26 26" fill="none" xmlns="http://www.w3.org/2000/svg">
<path d="M13.0002 7.58325C10.0102 7.58325 7.5835 10.0099 7.5835 12.9999C7.5835 15.9899 10.0102 18.4166 13.0002 18.4166C15.9902 18.4166 18.4168 15.9899 18.4168 12.9999C18.4168 10.0099 15.9902 7.58325 13.0002 7.58325ZM2.16683 14.0833H4.3335C4.92933 14.0833 5.41683 13.5958 5.41683 12.9999C5.41683 12.4041 4.92933 11.9166 4.3335 11.9166H2.16683C1.571 11.9166 1.0835 12.4041 1.0835 12.9999C1.0835 13.5958 1.571 14.0833 2.16683 14.0833ZM21.6668 14.0833H23.8335C24.4293 14.0833 24.9168 13.5958 24.9168 12.9999C24.9168 12.4041 24.4293 11.9166 23.8335 11.9166H21.6668C21.071 11.9166 20.5835 12.4041 20.5835 12.9999C20.5835 13.5958 21.071 14.0833 21.6668 14.0833ZM11.9168 2.16659V4.33325C11.9168 4.92909 12.4043 5.41658 13.0002 5.41658C13.596 5.41658 14.0835 4.92909 14.0835 4.33325V2.16659C14.0835 1.57075 13.596 1.08325 13.0002 1.08325C12.4043 1.08325 11.9168 1.57075 11.9168 2.16659ZM11.9168 21.6666V23.8333C11.9168 24.4291 12.4043 24.9166 13.0002 24.9166C13.596 24.9166 14.0835 24.4291 14.0835 23.8333V21.6666C14.0835 21.0708 13.596 20.5833 13.0002 20.5833C12.4043 20.5833 11.9168 21.0708 11.9168 21.6666ZM6.48933 4.96158C6.06683 4.53908 5.3735 4.53908 4.96183 4.96158C4.53933 5.38408 4.53933 6.07742 4.96183 6.48908L6.11016 7.63742C6.53266 8.05992 7.226 8.05992 7.63766 7.63742C8.04933 7.21492 8.06016 6.52158 7.63766 6.10992L6.48933 4.96158ZM19.8902 18.3624C19.4677 17.9399 18.7743 17.9399 18.3627 18.3624C17.9402 18.7849 17.9402 19.4783 18.3627 19.8899L19.511 21.0383C19.9335 21.4608 20.6268 21.4608 21.0385 21.0383C21.461 20.6158 21.461 19.9224 21.0385 19.5108L19.8902 18.3624ZM21.0385 6.48908C21.461 6.06658 21.461 5.37325 21.0385 4.96158C20.616 4.53908 19.9227 4.53908 19.511 4.96158L18.3627 6.10992C17.9402 6.53242 17.9402 7.22575 18.3627 7.63742C18.7852 8.04908 19.4785 8.05992 19.8902 7.63742L21.0385 6.48908ZM7.63766 19.8899C8.06016 19.4674 8.06016 18.7741 7.63766 18.3624C7.21516 17.9399 6.52183 17.9399 6.11016 18.3624L4.96183 19.5108C4.53933 19.9333 4.53933 20.6266 4.96183 21.0383C5.38433 21.4499 6.07766 21.4608 6.48933 21.0383L7.63766 19.8899Z" fill="#F7F6F4"/>
</svg>
